<?xml version="1.0" encoding="UTF-8"?>
<svg id="Layer_1" xmlns="http://www.w3.org/2000/svg" viewBox="0 0 500 500">
  <defs>
    <style>
      .cls-1 {
        fill: #fecc00;
      }
    </style>
  </defs>
  <g>
    <path class="cls-1" d="M81.03,303.64c6.49,12.55,15.09,23.69,24.05,34.59,11.79,14.35,25.67,26.28,41.18,36.39.57.37,1.35.43,2.52.63.41.07.7-.38.47-.72-.62-.95-.97-1.51-1.36-2.05-9.86-13.34-19.92-26.52-29.52-40.04-8.79-12.38-15.97-25.71-22.52-39.42-6.89-14.38-12.42-29.17-16.45-44.6-2.8-10.71-4.29-21.61-4.94-32.58-.52-8.62-.66-17.36.11-25.96.97-10.75,3.06-21.4,4.65-32.09.09-.6.03-1.22.02-1.82-.01-.17-.1-.33-.26-.41l-.35-.19c-.21-.11-.47-.04-.61.15-.23.33-.45.65-.61,1.01-3.65,8.42-7.99,16.63-10.76,25.33-5.9,18.57-7.81,37.6-6,57.17,2.13,23.11,9.84,44.27,20.37,64.6Z"/>
    <path class="cls-1" d="M91.16,255.68c6.18,20.22,15.42,38.92,28.58,55.55,4.14,5.22,8.68,10.13,13.04,15.17.16.18.43.21.62.08l.52-.36c.17-.12.25-.35.17-.55-.38-1.02-.75-2.06-1.17-3.08-5.03-12.18-10.05-24.34-15.1-36.51-5.98-14.4-10.13-29.35-13.09-44.64-2.79-14.43-3.06-29-2.49-43.64.74-18.51,5.58-36.04,13.09-52.78,6.84-15.25,16.71-28.65,27.74-41.18,2.14-2.42,4.16-4.93,6.2-7.43-.82-.95-.62-.71-1.43-1.65-4.11,2.48-8.36,4.77-11.88,7.88-7.54,6.65-15.59,12.75-22.11,20.58-12.39,14.87-20.74,31.75-25.52,50.29-4.22,16.34-5.8,32.98-3.69,49.94,1.36,10.97,3.3,21.79,6.53,32.33Z"/>
    <path class="cls-1" d="M113.1,209.54c-.03,6.48.06,13.1,1.32,19.41,1.74,8.81,4.63,17.4,7.08,26.07.15.51.61.92,1,1.36.14.15.34.2.52.14l.33-.12c.2-.07.33-.27.3-.48-.26-3.07-.75-6.14-.66-9.21.23-8.29.25-16.63,1.22-24.86,2.63-22.35,7.53-44.06,18.33-64.18,9.28-17.31,21.5-32,36.91-44.03,20.99-16.4,45.41-23.17,71.54-24.77,8.46-.52,16.94-.65,25.41-1.05.98-.04,1.95-.38,3.36-.79.41-.11.47-.66.1-.87-.72-.41-1.05-.61-1.41-.71-20.09-5.71-40.51-7.15-61.14-4.02-6.74,1.02-13.66,2.44-19.88,5.11-8.38,3.6-16.63,7.6-24.42,12.65-21.37,13.84-37.6,32.07-48.06,55.13-7.91,17.43-11.74,36.01-11.84,55.21Z"/>
    <path class="cls-1" d="M352.13,375.14c-2.72.69-5,1.95-7.36,2.98-16.83,7.43-33.6,14.98-51.19,20.6-15.92,5.09-32.18,8.47-48.73,9.63-14.55,1.01-29.17.56-43.74-1.8-35.06-5.67-65.13-20.95-90.01-46.13-7.96-8.05-15.07-17.03-21.84-26.13-12.37-16.6-21.74-34.96-29.04-54.27-4.33-11.46-7.56-23.33-11.31-35.02-.27-.83-.62-1.65-.95-2.46-.09-.2-.29-.33-.51-.29h-.01c-.21.03-.38.21-.41.43-.1,1.24-.3,2.48-.19,3.68.55,5.56,1.13,11.12,1.85,16.65,4.1,31.12,14.54,59.9,32.03,86.02,9.27,13.86,20.09,26.34,32.8,37.27,11.77,10.12,24.72,18.23,38.74,24.54,19.14,8.63,39.59,12.3,60.4,13.99,12.68,1.04,25.24-.77,37.68-2.94,8.88-1.55,17.76-3.57,26.29-6.4,10.25-3.41,20.31-7.52,30.1-12.06,8.65-4.01,16.82-9.05,25.22-13.61,1.9-1.04,13.62-7.78,19.32-12.67.52-.3.93-.77,1.34-1.25.29-.35-.03-.88-.47-.77Z"/>
  </g>
  <path class="cls-1" d="M440.76,373.72c-1.55-.44-3.14-.73-4.73-.99-10.35-1.65-19.21-6.17-26.74-13.45-10.48-10.12-16.77-22.61-19.59-36.83-2.73-13.77-4.65-27.69-6.93-41.55-2.34-14.24-4.77-28.45-7.02-42.69-2-12.66-3.75-25.36-5.73-38.02-1.36-8.77-2.87-17.51-4.45-26.24-.3-1.69-1.14-2.64-2.03-3.99-1.14-1.71-3.43-2.23-5.19-1.17-1.6.96-2.99,1.5-4.01,3.24-1.79,3.07-3.24,6.31-4.7,9.54-9.77,21.73-19.55,43.47-29.25,65.23-7.2,16.16-14.27,32.38-21.46,48.53-.97,2.18-2.01,4.32-3.07,6.46-4.02-8.71-7.99-17.44-12.02-26.15-5.55-11.96-11.11-23.92-16.72-35.85-8.78-18.64-17.44-37.32-26.49-55.83-4.99-10.2-12.77-18.24-21.62-25.2-12.84-10.11-27.84-12.83-43.81-11.4-1.72.15-3.03.78-4.61,1.32-1.73.61-2.8,2.35-2.54,4.17h0c.3,2.16,2.04,3.83,4.2,4.02,1.25.11,2.49.24,3.74.3,7.39.36,14.57,2.78,20.53,7.22,9.07,6.77,15.38,16.1,21.25,25.63,2.27,3.7,2.57,7.66,2.04,11.88-1.86,14.87-3.58,29.74-5.36,44.62-2.8,23.47-5.59,46.96-8.41,70.43-1.24,10.25-3.96,12.92-14.08,14.78-2.61.48-6.22,2.44-6.4,5.39-.1,1.58.39,3.07,1.6,4.13,1.17,1.02,2.57,1.27,4.06,1.36.24.01.48.01.72.03.53.05,1.08.08,1.61.08,12.14,0,24.28.01,36.44-.03,1.52,0,3.03-.24,4.51-.6,1.82-.44,3.31-2.3,3.48-4.15.17-1.81-.92-3.83-2.57-4.64-1.08-.54-2.03-.68-3.14-.99-5.69-1.61-6.68-3.23-6.08-9.09.66-6.3,1.2-12.61,1.76-18.93,2.24-25.69,4.43-51.4,6.7-77.1.04-.5.09-1,.14-1.5,3.54,7.98,6.99,16,10.62,23.94,6.54,14.28,13.23,28.49,19.83,42.76,7.35,15.9,14.63,31.84,22.05,47.71,1.02,2.19,3.03,4.55,5.48,5.06,3.47.74,5.67-1.56,6.59-4.63.11-.35.2-.71.29-1.08,3.48-13.84,10.51-26.54,16.06-39.61,9.51-22.42,19.58-44.6,29.45-66.86,1.44-3.23,2.93-6.45,4.42-9.64,1.51,11.05,2.97,22.12,4.49,33.19,2.33,16.99,4.64,34,7.09,50.98,1.68,11.68,3.75,23.13,8.89,33.86,6.32,13.22,15.1,24.44,27.67,32.23,12.84,7.94,27.22,9.94,42.06,8.87h.16c4.93-.43,5.58-7.45.82-8.78Z"/>
</svg>